<svg xmlns="http://www.w3.org/2000/svg" viewBox="0 0 1254 1254" width="1254" height="1254" role="img" aria-labelledby="title">
  <title>Icon Managed It</title>
  <path d="M 648 222 L 523 237 L 407 305 L 342 389 L 315 460 L 308 543 L 266 571 L 250 618 L 250 739 L 265 782 L 315 813 L 391 811 L 426 765 L 425 585 L 399 548 L 338 540 L 355 434 L 408 348 L 502 279 L 606 253 L 735 274 L 838 348 L 889 433 L 906 539 L 852 544 L 820 578 L 816 757 L 829 793 L 876 819 L 820 883 L 737 918 L 677 923 L 638 876 L 584 880 L 557 910 L 553 946 L 576 984 L 607 997 L 647 989 L 676 952 L 771 940 L 843 904 L 881 867 L 910 815 L 972 789 L 993 738 L 989 594 L 965 559 L 935 544 L 922 435 L 879 350 L 781 262 Z M 609 901 L 622 901 L 632 905 L 644 916 L 649 927 L 649 941 L 646 950 L 637 961 L 633 964 L 622 968 L 609 968 L 602 966 L 595 962 L 586 953 L 583 947 L 581 939 L 581 930 L 585 918 L 594 908 Z M 868 569 L 907 568 L 922 570 L 934 574 L 944 580 L 954 590 L 963 609 L 963 745 L 956 762 L 944 775 L 934 781 L 919 786 L 871 787 L 864 785 L 851 775 L 845 761 L 845 595 L 852 579 L 860 572 Z M 316 571 L 337 568 L 375 569 L 387 575 L 397 590 L 398 761 L 392 775 L 383 783 L 373 787 L 331 787 L 311 782 L 299 775 L 288 764 L 280 747 L 280 609 L 282 602 L 290 588 L 303 577 Z" fill="#1456E8" fill-rule="evenodd"/>
</svg>
