<svg xmlns="http://www.w3.org/2000/svg" viewBox="0 0 1254 1254" width="1254" height="1254" role="img" aria-labelledby="title">
  <title>Icon Consulting</title>
  <path d="M 658 908 L 656 978 L 665 986 L 1052 986 L 1060 979 L 1058 904 L 1050 877 L 1038 853 L 1025 835 L 992 806 L 962 791 L 935 784 L 794 783 L 747 795 L 719 811 L 691 837 L 668 875 Z M 680 925 L 688 891 L 706 858 L 731 833 L 757 818 L 782 810 L 804 807 L 918 807 L 950 813 L 972 823 L 992 837 L 1007 852 L 1019 869 L 1032 899 L 1037 928 L 1037 960 L 681 961 Z M 192 906 L 189 929 L 189 977 L 198 986 L 582 986 L 591 977 L 591 927 L 588 904 L 582 882 L 568 853 L 555 835 L 529 811 L 497 793 L 465 784 L 331 783 L 306 787 L 282 795 L 252 812 L 226 836 L 205 868 Z M 213 929 L 217 905 L 231 871 L 250 846 L 279 824 L 308 812 L 329 808 L 447 807 L 480 813 L 502 823 L 523 838 L 540 856 L 549 869 L 562 899 L 567 925 L 567 960 L 214 961 Z M 846 534 L 820 540 L 799 550 L 783 562 L 768 578 L 758 593 L 748 617 L 744 639 L 745 667 L 752 692 L 762 711 L 771 723 L 789 740 L 801 748 L 829 760 L 845 763 L 872 763 L 891 759 L 914 749 L 935 734 L 952 715 L 963 696 L 971 671 L 973 656 L 972 632 L 961 597 L 949 578 L 934 562 L 914 548 L 890 538 L 870 534 Z M 847 559 L 871 559 L 884 562 L 903 570 L 913 577 L 926 589 L 937 604 L 943 617 L 948 635 L 949 653 L 946 672 L 941 686 L 930 704 L 916 718 L 903 727 L 893 732 L 872 738 L 844 738 L 826 733 L 806 722 L 784 700 L 776 686 L 769 663 L 768 643 L 770 629 L 775 614 L 785 596 L 801 579 L 812 571 L 829 563 Z M 376 533 L 345 541 L 329 549 L 315 559 L 300 574 L 286 595 L 278 614 L 273 641 L 274 664 L 281 690 L 290 708 L 300 722 L 323 743 L 343 754 L 364 761 L 376 763 L 409 762 L 430 756 L 450 746 L 469 731 L 485 712 L 494 696 L 502 671 L 504 658 L 503 630 L 496 605 L 488 589 L 471 567 L 457 555 L 441 545 L 421 537 L 401 533 Z M 378 558 L 400 558 L 423 564 L 444 576 L 457 588 L 468 603 L 475 618 L 479 634 L 480 655 L 478 668 L 474 681 L 463 701 L 448 717 L 437 725 L 421 733 L 402 738 L 376 738 L 354 732 L 332 719 L 317 704 L 309 692 L 303 680 L 298 659 L 298 637 L 301 623 L 305 612 L 314 596 L 330 579 L 346 568 L 364 561 Z M 787 266 L 763 254 L 730 247 L 545 247 L 518 252 L 493 263 L 476 275 L 456 297 L 442 323 L 435 353 L 435 414 L 443 444 L 452 462 L 476 490 L 504 508 L 534 517 L 587 519 L 572 567 L 551 590 L 553 603 L 561 607 L 584 603 L 641 581 L 672 558 L 699 518 L 739 517 L 770 508 L 797 491 L 821 464 L 831 445 L 839 412 L 837 340 L 819 297 Z M 466 332 L 477 312 L 495 293 L 531 275 L 744 275 L 770 286 L 781 294 L 797 311 L 808 331 L 814 355 L 814 411 L 811 426 L 797 454 L 776 475 L 741 491 L 682 495 L 668 523 L 652 542 L 626 560 L 601 570 L 614 511 L 614 501 L 608 494 L 547 493 L 520 487 L 492 470 L 471 444 L 460 412 L 460 355 Z M 715 364 L 709 366 L 702 372 L 699 378 L 698 386 L 700 393 L 706 400 L 712 403 L 720 404 L 729 401 L 736 394 L 738 389 L 738 379 L 736 374 L 729 367 L 722 364 Z M 634 364 L 626 367 L 620 373 L 617 381 L 617 387 L 619 393 L 625 400 L 631 403 L 639 404 L 649 400 L 654 395 L 657 389 L 657 381 L 656 376 L 648 367 L 641 364 Z M 553 364 L 545 367 L 539 373 L 536 379 L 536 388 L 539 395 L 544 400 L 550 403 L 558 404 L 568 400 L 573 395 L 576 388 L 576 381 L 573 373 L 567 367 L 560 364 Z" fill="#1456E8" fill-rule="evenodd"/>
</svg>
